# xmcd CD database file
#
# Track frame offsets:
#	150
#	26987
#	56163
#	80859
#	106702
#	132911
#	158823
#	185273
#
# Disc length: 2603 seconds
#
# Revision: 0
# Processed by: cddbd v1.4PL0 Copyright (c) Steve Scherf et al.
# Submitted via: CDex 1.51
#
DISCID=680a2908
DTITLE=Greg Howard - Sol
DYEAR=1997
DGENRE=Jazz
TTITLE0=Carnival
TTITLE1=El Chicle
TTITLE2=Goya's Dream
TTITLE3=Guitarresque
TTITLE4=The Crossing
TTITLE5=Sangre de Cristo
TTITLE6=Blues for Ayman
TTITLE7=Grillos
EXTD=YEAR: 1997
EXTT0=
EXTT1=
EXTT2=
EXTT3=
EXTT4=
EXTT5=
EXTT6=
EXTT7=
PLAYORDER=
